<svg width="32" height="32" viewBox="0 0 32 32" xmlns="http://www.w3.org/2000/svg">
  <defs>
    <!-- Gradients for modern look -->
    <linearGradient id="lanternGradient" x1="0%" y1="0%" x2="100%" y2="100%">
      <stop offset="0%" style="stop-color:#E6B885;stop-opacity:1" />
      <stop offset="100%" style="stop-color:#D4A574;stop-opacity:1" />
    </linearGradient>
    <linearGradient id="ethGradient" x1="0%" y1="0%" x2="100%" y2="100%">
      <stop offset="0%" style="stop-color:#8A92E2;stop-opacity:1" />
      <stop offset="100%" style="stop-color:#627EEA;stop-opacity:1" />
    </linearGradient>
    <radialGradient id="glow" cx="50%" cy="50%" r="60%">
      <stop offset="0%" style="stop-color:#FFD700;stop-opacity:0.4"/>
      <stop offset="100%" style="stop-color:#FFD700;stop-opacity:0"/>
    </radialGradient>
  </defs>
  
  <!-- Background circle for better contrast -->
  <circle cx="16" cy="16" r="15" fill="#1F2937" stroke="#374151" stroke-width="1"/>
  
  <!-- Nyigba.eth Favicon -->
  <g transform="translate(16, 16)">
    <!-- Glow effect -->
    <circle cx="0" cy="0" r="12" fill="url(#glow)"/>
    
    <!-- Lantern Body -->
    <ellipse cx="0" cy="1" rx="8" ry="10" fill="url(#lanternGradient)" stroke="#8B4513" stroke-width="0.8"/>
    
    <!-- Lantern decorative bands -->
    <line x1="-6" y1="-4" x2="6" y2="-4" stroke="#8B4513" stroke-width="0.5" opacity="0.7"/>
    <line x1="-6" y1="2" x2="6" y2="2" stroke="#8B4513" stroke-width="0.5" opacity="0.7"/>
    <line x1="-6" y1="8" x2="6" y2="8" stroke="#8B4513" stroke-width="0.5" opacity="0.7"/>
    
    <!-- Lantern Top -->
    <ellipse cx="0" cy="-8" rx="5" ry="2.5" fill="#8B4513"/>
    
    <!-- Lantern Handle -->
    <path d="M -3 -10.5 Q 0 -12 3 -10.5" stroke="#8B4513" stroke-width="1" fill="none"/>
    
    <!-- Ethereum Diamond Symbol (centered) -->
    <g transform="translate(0, 3)">
      <polygon points="0,-5 -3.5,0 0,3 3.5,0" fill="url(#ethGradient)" stroke="#FFFFFF" stroke-width="0.3"/>
      <polygon points="0,-5 -3.5,0 0,-1" fill="#FFFFFF" opacity="0.4"/>
      <polygon points="0,-1 -3.5,0 0,3" fill="url(#ethGradient)" opacity="0.8"/>
      <polygon points="0,-1 3.5,0 0,3" fill="url(#ethGradient)" opacity="0.6"/>
      <polygon points="0,-5 3.5,0 0,-1" fill="#FFFFFF" opacity="0.6"/>
    </g>
  </g>
</svg>
